<svg width="32" height="32" viewBox="0 0 32 32" fill="none" xmlns="http://www.w3.org/2000/svg">
<g clip-path="url(#clip0_855_673)">
<path d="M32 0H0V32H32V0Z" fill="#08A588"/>
<path d="M6 19.75C4.95833 19.75 4.07292 19.3854 3.34375 18.6562C2.61458 17.9271 2.25 17.0417 2.25 16C2.25 14.9583 2.61458 14.0729 3.34375 13.3437C4.07292 12.6146 4.95833 12.25 6 12.25V9.75C6 9.0625 6.24479 8.47396 6.73437 7.98437C7.22396 7.49479 7.8125 7.25 8.5 7.25H12.25C12.25 6.20833 12.6146 5.32292 13.3437 4.59375C14.0729 3.86458 14.9583 3.5 16 3.5C17.0417 3.5 17.9271 3.86458 18.6562 4.59375C19.3854 5.32292 19.75 6.20833 19.75 7.25H23.5C24.1875 7.25 24.776 7.49479 25.2656 7.98437C25.7552 8.47396 26 9.0625 26 9.75V12.25C27.0417 12.25 27.9271 12.6146 28.6562 13.3437C29.3854 14.0729 29.75 14.9583 29.75 16C29.75 17.0417 29.3854 17.9271 28.6562 18.6562C27.9271 19.3854 27.0417 19.75 26 19.75V24.75C26 25.4375 25.7552 26.026 25.2656 26.5156C24.776 27.0052 24.1875 27.25 23.5 27.25H8.5C7.8125 27.25 7.22396 27.0052 6.73437 26.5156C6.24479 26.026 6 25.4375 6 24.75V19.75ZM12.25 17.25C12.7708 17.25 13.2135 17.0677 13.5781 16.7031C13.9427 16.3385 14.125 15.8958 14.125 15.375C14.125 14.8542 13.9427 14.4115 13.5781 14.0469C13.2135 13.6823 12.7708 13.5 12.25 13.5C11.7292 13.5 11.2865 13.6823 10.9219 14.0469C10.5573 14.4115 10.375 14.8542 10.375 15.375C10.375 15.8958 10.5573 16.3385 10.9219 16.7031C11.2865 17.0677 11.7292 17.25 12.25 17.25ZM19.75 17.25C20.2708 17.25 20.7135 17.0677 21.0781 16.7031C21.4427 16.3385 21.625 15.8958 21.625 15.375C21.625 14.8542 21.4427 14.4115 21.0781 14.0469C20.7135 13.6823 20.2708 13.5 19.75 13.5C19.2292 13.5 18.7865 13.6823 18.4219 14.0469C18.0573 14.4115 17.875 14.8542 17.875 15.375C17.875 15.8958 18.0573 16.3385 18.4219 16.7031C18.7865 17.0677 19.2292 17.25 19.75 17.25ZM11 22.25H21V19.75H11V22.25ZM8.5 24.75H23.5V9.75H8.5V24.75Z" fill="white"/>
</g>
<defs>
<clipPath id="clip0_855_673">
<rect width="32" height="32" fill="white"/>
</clipPath>
</defs>
</svg>
