<?xml version="1.0" encoding="utf-8"?>
<!-- Generator: Adobe Illustrator 25.4.1, SVG Export Plug-In . SVG Version: 6.00 Build 0)  -->
<svg version="1.1" id="Layer_1" xmlns="http://www.w3.org/2000/svg" xmlns:xlink="http://www.w3.org/1999/xlink" x="0px" y="0px"
	 viewBox="0 0 792 612" style="enable-background:new 0 0 792 612;" xml:space="preserve">
<style type="text/css">
	.st0{fill:#FFFFFF;}
</style>
<g>
	<g>
		<g>
			<path class="st0" d="M591.9,317.8c-6.9,0-11.6-4.1-11.6-9.9c0-6.5,5.2-10.5,15.9-12.7l12.5-2.4v10.3
				C608.7,311.8,601.8,317.8,591.9,317.8 M574.1,343.6c16.3,0,30.3-7.1,35.9-18.3c0,5.8,0.4,10.8,1.5,15.7h41.7
				c-1.5-5.6-2.6-15.9-2.6-26.5v-39.1c0-30.8-17.2-44.5-54.6-44.5c-33.3,0-54,14-55.9,38.9h42.4c0.6-8.6,4.9-12.9,13.3-12.9
				c7.3,0,11.4,3.9,11.4,12v4.7L578,278c-15.7,2.4-26,6-32.5,11.6c-6,5.2-8.8,12.3-8.8,21.9C536.7,330.7,551.7,343.6,574.1,343.6
				 M451.7,341h47.7l36.8-107.5h-44.3L478.2,292c-1.5,6.2-1.7,9.7-2.4,14.6h-0.4c-0.6-4.9-0.9-8.4-2.4-14.6l-13.8-58.5h-44.3
				L451.7,341z M351,317.8c-6.9,0-11.6-4.1-11.6-9.9c0-6.5,5.2-10.5,15.9-12.7l12.5-2.4v10.3C367.8,311.8,360.9,317.8,351,317.8
				 M333.2,343.6c16.3,0,30.3-7.1,35.9-18.3c0,5.8,0.4,10.8,1.5,15.7h41.7c-1.5-5.6-2.6-15.9-2.6-26.5v-39.1
				c0-30.8-17.2-44.5-54.6-44.5c-33.3,0-54,14-55.9,38.9h42.4c0.6-8.6,4.9-12.9,13.3-12.9c7.3,0,11.4,3.9,11.4,12v4.7l-29.3,4.3
				c-15.7,2.4-26,6-32.5,11.6c-6,5.2-8.8,12.3-8.8,21.9C295.8,330.7,310.8,343.6,333.2,343.6 M138.8,341h41.5v-73.1v-20.2h0.4
				c1.9,4.9,5.6,11.8,8.8,18.3l43,75.1H279V188.3h-41.5v74.4v19.1h-0.4c-1.9-5.2-6.2-14-9.2-19.8l-40.4-73.8h-48.6L138.8,341
				L138.8,341z"/>
		</g>
	</g>
	<rect x="138.8" y="382.3" class="st0" width="511.2" height="41.4"/>
</g>
</svg>
